<svg xmlns="http://www.w3.org/2000/svg" width="1080" height="1920" viewBox="0 0 1080 1920">
  <defs>
    <linearGradient id="bg" x1="0" y1="0" x2="0" y2="1">
      <stop offset="0%" stop-color="#1c1c1e"/>
      <stop offset="100%" stop-color="#141416"/>
    </linearGradient>
    <linearGradient id="redGlow" x1="0" y1="0" x2="1" y2="1">
      <stop offset="0%" stop-color="#c0392b"/>
      <stop offset="100%" stop-color="#8b1a1a"/>
    </linearGradient>
    <filter id="cardBlur" x="-5%" y="-5%" width="110%" height="110%">
      <feGaussianBlur stdDeviation="14"/>
    </filter>
  </defs>

  <!-- Background -->
  <rect width="1080" height="1920" fill="url(#bg)"/>

  <!-- Top red bar -->
  <rect x="0" y="0" width="1080" height="4" fill="url(#redGlow)"/>

  <!-- Grid lines (zone boundaries + vertical centre) -->
  <line x1="540" y1="0" x2="540" y2="1920" stroke="#242426" stroke-width="1"/>
  <line x1="0" y1="640" x2="1080" y2="640" stroke="#242426" stroke-width="1"/>
  <line x1="0" y1="1280" x2="1080" y2="1280" stroke="#242426" stroke-width="1"/>

  <!-- Corner brackets -->
  <rect x="60" y="60" width="40" height="3" fill="#333336"/>
  <rect x="60" y="60" width="3" height="40" fill="#333336"/>
  <rect x="980" y="60" width="40" height="3" fill="#333336"/>
  <rect x="1017" y="60" width="3" height="40" fill="#333336"/>
  <rect x="60" y="1857" width="40" height="3" fill="#333336"/>
  <rect x="60" y="1820" width="3" height="40" fill="#333336"/>
  <rect x="980" y="1857" width="40" height="3" fill="#333336"/>
  <rect x="1017" y="1820" width="3" height="40" fill="#333336"/>

  <!-- ── ZONE 1: HOOK ── -->
  <text x="540" y="210" text-anchor="middle"
        font-family="monospace" font-size="22" letter-spacing="6" fill="#c0392b">ARMANI KATEHANO B.C.</text>

  <text x="540" y="340" text-anchor="middle"
        font-family="monospace" font-size="100" font-weight="bold" letter-spacing="2" fill="#ffffff">SOMETHING</text>
  <text x="540" y="460" text-anchor="middle"
        font-family="monospace" font-size="100" font-weight="bold" letter-spacing="2" fill="#ffffff">IS COMING.</text>

  <!-- Red divider -->
  <rect x="500" y="495" width="80" height="2" fill="#c0392b"/>

  <!-- Date -->
  <text x="540" y="568" text-anchor="middle"
        font-family="monospace" font-size="34" letter-spacing="8" fill="#aaaaaa">03.05.2026</text>

  <!-- ── ZONE 2: NAME + CARDS ── -->
  <text x="540" y="718" text-anchor="middle"
        font-family="monospace" font-size="20" letter-spacing="4" fill="#c0392b">STATS HUB</text>

  <text x="540" y="800" text-anchor="middle"
        font-family="monospace" font-size="64" font-weight="bold" letter-spacing="2" fill="#ffffff">ARMANI KATEHANO</text>

  <text x="540" y="848" text-anchor="middle"
        font-family="monospace" font-size="18" letter-spacing="3" fill="#666666">YOUR TEAM · YOUR STATS · ONLINE</text>

  <!-- Stat card — blurred -->
  <g filter="url(#cardBlur)">
    <rect x="80" y="890" width="430" height="300" rx="4" fill="#242426" stroke="#2a2a2c" stroke-width="1"/>
    <text x="104" y="934" font-family="monospace" font-size="16" letter-spacing="3" fill="#c0392b">PLAYER STATS</text>
    <text x="104" y="970" font-family="monospace" font-size="18" fill="#888888">#14 · SF/PF</text>
    <text x="104" y="1022" font-family="monospace" font-size="34" font-weight="bold" fill="#ffffff">G. TSIOULKAS</text>
    <text x="120" y="1090" font-family="monospace" font-size="44" font-weight="bold" fill="#ffffff">12.6</text>
    <text x="120" y="1126" font-family="monospace" font-size="16" letter-spacing="2" fill="#666666">PPG</text>
    <text x="258" y="1090" font-family="monospace" font-size="44" font-weight="bold" fill="#ffffff">6.6</text>
    <text x="258" y="1126" font-family="monospace" font-size="16" letter-spacing="2" fill="#666666">RPG</text>
    <text x="388" y="1090" font-family="monospace" font-size="44" font-weight="bold" fill="#ffffff">1.3</text>
    <text x="388" y="1126" font-family="monospace" font-size="16" letter-spacing="2" fill="#666666">APG</text>
  </g>

  <!-- Stat card lock overlay (outside blur) -->
  <!-- Padlock body -->
  <rect x="275" y="1022" width="40" height="34" rx="4" fill="#c0392b"/>
  <!-- Padlock shackle -->
  <path d="M283,1022 v-14 a12,12 0 0,1 24,0 v14" fill="none" stroke="#c0392b" stroke-width="4" stroke-linecap="round"/>
  <!-- Keyhole -->
  <circle cx="295" cy="1036" r="5" fill="#141416"/>
  <rect x="293" y="1036" width="4" height="8" fill="#141416"/>
  <!-- Lock date label -->
  <text x="295" y="1175" text-anchor="middle"
        font-family="monospace" font-size="18" letter-spacing="4" fill="#c0392b">03.05</text>

  <!-- Player card — blurred -->
  <g filter="url(#cardBlur)">
    <rect x="570" y="890" width="430" height="300" rx="4" fill="#242426" stroke="#2a2a2c" stroke-width="1"/>
    <text x="594" y="934" font-family="monospace" font-size="16" letter-spacing="3" fill="#c0392b">PLAYER CARD</text>
    <!-- Avatar placeholder bar -->
    <rect x="594" y="950" width="382" height="80" rx="2" fill="#1a1a1c"/>
    <text x="594" y="1068" font-family="monospace" font-size="34" font-weight="bold" fill="#ffffff">G. ANTONAKOS</text>
    <text x="594" y="1108" font-family="monospace" font-size="18" fill="#888888">PG · #11</text>
    <!-- Stat bar -->
    <rect x="594" y="1138" width="260" height="6" rx="2" fill="#c0392b"/>
    <rect x="860" y="1138" width="112" height="6" rx="2" fill="#333333"/>
  </g>

  <!-- Player card lock overlay (outside blur) -->
  <!-- Padlock body -->
  <rect x="765" y="1022" width="40" height="34" rx="4" fill="#c0392b"/>
  <!-- Padlock shackle -->
  <path d="M773,1022 v-14 a12,12 0 0,1 24,0 v14" fill="none" stroke="#c0392b" stroke-width="4" stroke-linecap="round"/>
  <!-- Keyhole -->
  <circle cx="785" cy="1036" r="5" fill="#141416"/>
  <rect x="783" y="1036" width="4" height="8" fill="#141416"/>
  <!-- Lock date label -->
  <text x="785" y="1175" text-anchor="middle"
        font-family="monospace" font-size="18" letter-spacing="4" fill="#c0392b">03.05</text>

  <!-- ── ZONE 3: CTA ── -->
  <text x="540" y="1368" text-anchor="middle"
        font-family="monospace" font-size="16" letter-spacing="5" fill="#555555">IT'S ALMOST TIME</text>

  <text x="540" y="1490" text-anchor="middle"
        font-family="monospace" font-size="100" font-weight="bold" letter-spacing="2" fill="#ffffff">SUNDAY.</text>
  <text x="540" y="1612" text-anchor="middle"
        font-family="monospace" font-size="100" font-weight="bold" letter-spacing="2" fill="#c0392b">03.05.</text>

  <!-- Red divider -->
  <rect x="500" y="1645" width="80" height="2" fill="#c0392b"/>

  <!-- Link in bio label -->
  <text x="540" y="1708" text-anchor="middle"
        font-family="monospace" font-size="20" letter-spacing="4" fill="#aaaaaa">LINK IN BIO</text>

  <!-- URL pill -->
  <rect x="260" y="1728" width="560" height="60" rx="4" fill="none" stroke="#c0392b" stroke-width="1.5"/>
  <text x="540" y="1766" text-anchor="middle"
        font-family="monospace" font-size="24" letter-spacing="2" fill="#c0392b">armani-katehano.com</text>

  <!-- Handle -->
  <text x="540" y="1856" text-anchor="middle"
        font-family="monospace" font-size="18" letter-spacing="2" fill="#444444">@armanikatehano_b.c</text>

</svg>
